<svg id="Layer_1" data-name="Layer 1" xmlns="http://www.w3.org/2000/svg" xmlns:xlink="http://www.w3.org/1999/xlink" viewBox="40 40 210 210"><defs><style>.cls-1{fill:none;}.cls-2{clip-path:url(#clip-path);}.cls-3{fill:#ff8408;}.cls-4{fill:#ff8308;}.cls-5{fill:#ff8208;}.cls-6{fill:#ff8108;}.cls-7{fill:#ff8107;}.cls-8{fill:#ff8007;}.cls-9{fill:#ff7f07;}.cls-10{fill:#ff7e07;}.cls-11{fill:#ff7d07;}.cls-12{fill:#ff7c07;}.cls-13{fill:#ff7b07;}.cls-14{fill:#ff7a07;}.cls-15{fill:#ff7a06;}.cls-16{fill:#ff7906;}.cls-17{fill:#ff7806;}.cls-18{fill:#ff7706;}.cls-19{fill:#ff7606;}.cls-20{fill:#ff7506;}.cls-21{fill:#ff7406;}.cls-22{fill:#ff7405;}.cls-23{fill:#ff7305;}.cls-24{fill:#ff7205;}.cls-25{fill:#ff7105;}.cls-26{fill:#ff7005;}.cls-27{fill:#ff6f05;}.cls-28{fill:#ff6e05;}.cls-29{fill:#ff6d05;}.cls-30{fill:#ff6d04;}.cls-31{fill:#ff6c04;}.cls-32{fill:#ff6b04;}.cls-33{fill:#ff6a04;}.cls-34{fill:#ff6904;}.cls-35{fill:#ff6804;}.cls-36{fill:#ff6704;}.cls-37{fill:#ff6703;}.cls-38{fill:#ff6603;}.cls-39{fill:#ff6503;}.cls-40{fill:#ff6403;}.cls-41{fill:#ff6303;}.cls-42{fill:#ff6203;}.cls-43{fill:#ff6103;}.cls-44{fill:#ff6003;}.cls-45{fill:#ff6002;}.cls-46{fill:#ff5f02;}.cls-47{fill:#ff5e02;}.cls-48{fill:#ff5d02;}.cls-49{fill:#ff5c02;}.cls-50{fill:#ff5b02;}.cls-51{fill:#ff5a02;}.cls-52{fill:#ff5a01;}.cls-53{fill:#ff5901;}.cls-54{fill:#ff5801;}.cls-55{fill:#ff5701;}.cls-56{fill:#ff5601;}.cls-57{fill:#ff5501;}.cls-58{fill:#ff5401;}.cls-59{fill:#ff5301;}.cls-60{fill:#ff5300;}.cls-61{fill:#ff5200;}.cls-62{fill:#ff5100;}.cls-63{fill:#ff5000;}.cls-64{fill:#fff;fill-rule:evenodd;}</style><clipPath id="clip-path"><rect class="cls-1" x="44.27" y="54.27" width="191.46" height="191.46" rx="45.62"/></clipPath></defs><g class="cls-2"><rect class="cls-3" x="44.27" y="54.27" width="191.46" height="1.12"/><rect class="cls-3" x="44.27" y="55.02" width="191.46" height="1.12"/><rect class="cls-3" x="44.27" y="55.76" width="191.46" height="1.12"/><rect class="cls-4" x="44.27" y="56.51" width="191.46" height="1.12"/><rect class="cls-4" x="44.27" y="57.26" width="191.46" height="1.12"/><rect class="cls-4" x="44.27" y="58.01" width="191.46" height="1.12"/><rect class="cls-4" x="44.27" y="58.76" width="191.46" height="1.12"/><rect class="cls-4" x="44.27" y="59.5" width="191.46" height="1.12"/><rect class="cls-5" x="44.27" y="60.25" width="191.46" height="1.12"/><rect class="cls-5" x="44.27" y="61" width="191.46" height="1.12"/><rect class="cls-5" x="44.27" y="61.75" width="191.46" height="1.12"/><rect class="cls-5" x="44.27" y="62.5" width="191.46" height="1.12"/><rect class="cls-5" x="44.27" y="63.24" width="191.46" height="1.12"/><rect class="cls-6" x="44.27" y="63.99" width="191.46" height="1.12"/><rect class="cls-6" x="44.27" y="64.74" width="191.46" height="1.12"/><rect class="cls-6" x="44.27" y="65.49" width="191.46" height="1.12"/><rect class="cls-7" x="44.27" y="66.23" width="191.46" height="1.12"/><rect class="cls-7" x="44.27" y="66.98" width="191.46" height="1.12"/><rect class="cls-8" x="44.27" y="67.73" width="191.46" height="1.12"/><rect class="cls-8" x="44.27" y="68.48" width="191.46" height="1.12"/><rect class="cls-8" x="44.27" y="69.23" width="191.46" height="1.12"/><rect class="cls-8" x="44.27" y="69.97" width="191.46" height="1.12"/><rect class="cls-8" x="44.27" y="70.72" width="191.46" height="1.12"/><rect class="cls-9" x="44.27" y="71.47" width="191.46" height="1.12"/><rect class="cls-9" x="44.27" y="72.22" width="191.46" height="1.12"/><rect class="cls-9" x="44.27" y="72.97" width="191.46" height="1.12"/><rect class="cls-9" x="44.27" y="73.71" width="191.46" height="1.12"/><rect class="cls-10" x="44.27" y="74.46" width="191.46" height="1.12"/><rect class="cls-10" x="44.27" y="75.21" width="191.46" height="1.12"/><rect class="cls-10" x="44.27" y="75.96" width="191.46" height="1.12"/><rect class="cls-10" x="44.27" y="76.71" width="191.46" height="1.12"/><rect class="cls-10" x="44.27" y="77.45" width="191.46" height="1.12"/><rect class="cls-11" x="44.27" y="78.2" width="191.46" height="1.12"/><rect class="cls-11" x="44.27" y="78.95" width="191.46" height="1.12"/><rect class="cls-11" x="44.27" y="79.7" width="191.46" height="1.12"/><rect class="cls-11" x="44.27" y="80.44" width="191.46" height="1.12"/><rect class="cls-11" x="44.27" y="81.19" width="191.46" height="1.12"/><rect class="cls-12" x="44.27" y="81.94" width="191.46" height="1.12"/><rect class="cls-12" x="44.27" y="82.69" width="191.46" height="1.12"/><rect class="cls-12" x="44.27" y="83.44" width="191.46" height="1.12"/><rect class="cls-12" x="44.27" y="84.18" width="191.46" height="1.12"/><rect class="cls-12" x="44.27" y="84.93" width="191.46" height="1.12"/><rect class="cls-13" x="44.27" y="85.68" width="191.46" height="1.12"/><rect class="cls-13" x="44.27" y="86.43" width="191.46" height="1.12"/><rect class="cls-13" x="44.27" y="87.18" width="191.46" height="1.12"/><rect class="cls-13" x="44.27" y="87.92" width="191.46" height="1.12"/><rect class="cls-13" x="44.27" y="88.67" width="191.46" height="1.12"/><rect class="cls-14" x="44.27" y="89.42" width="191.46" height="1.12"/><rect class="cls-15" x="44.27" y="90.17" width="191.46" height="1.12"/><rect class="cls-15" x="44.27" y="90.92" width="191.46" height="1.12"/><rect class="cls-15" x="44.27" y="91.66" width="191.46" height="1.12"/><rect class="cls-15" x="44.27" y="92.41" width="191.46" height="1.12"/><rect class="cls-16" x="44.27" y="93.16" width="191.46" height="1.12"/><rect class="cls-16" x="44.27" y="93.91" width="191.46" height="1.12"/><rect class="cls-16" x="44.27" y="94.66" width="191.46" height="1.12"/><rect class="cls-16" x="44.27" y="95.4" width="191.46" height="1.12"/><rect class="cls-16" x="44.27" y="96.15" width="191.46" height="1.12"/><rect class="cls-17" x="44.27" y="96.9" width="191.46" height="1.12"/><rect class="cls-17" x="44.27" y="97.65" width="191.46" height="1.12"/><rect class="cls-17" x="44.27" y="98.39" width="191.46" height="1.12"/><rect class="cls-17" x="44.27" y="99.14" width="191.46" height="1.12"/><rect class="cls-17" x="44.27" y="99.89" width="191.46" height="1.12"/><rect class="cls-18" x="44.27" y="100.64" width="191.46" height="1.12"/><rect class="cls-18" x="44.27" y="101.39" width="191.46" height="1.12"/><rect class="cls-18" x="44.27" y="102.13" width="191.46" height="1.12"/><rect class="cls-18" x="44.27" y="102.88" width="191.46" height="1.12"/><rect class="cls-18" x="44.27" y="103.63" width="191.46" height="1.12"/><rect class="cls-19" x="44.27" y="104.38" width="191.46" height="1.12"/><rect class="cls-19" x="44.27" y="105.13" width="191.46" height="1.12"/><rect class="cls-19" x="44.27" y="105.87" width="191.46" height="1.12"/><rect class="cls-19" x="44.27" y="106.62" width="191.46" height="1.12"/><rect class="cls-19" x="44.27" y="107.37" width="191.46" height="1.12"/><rect class="cls-20" x="44.27" y="108.12" width="191.46" height="1.12"/><rect class="cls-20" x="44.27" y="108.87" width="191.46" height="1.12"/><rect class="cls-20" x="44.27" y="109.61" width="191.46" height="1.12"/><rect class="cls-20" x="44.27" y="110.36" width="191.46" height="1.12"/><rect class="cls-20" x="44.27" y="111.11" width="191.46" height="1.12"/><rect class="cls-21" x="44.27" y="111.86" width="191.46" height="1.12"/><rect class="cls-21" x="44.27" y="112.6" width="191.46" height="1.12"/><rect class="cls-21" x="44.27" y="113.35" width="191.46" height="1.12"/><rect class="cls-22" x="44.27" y="114.1" width="191.46" height="1.12"/><rect class="cls-23" x="44.27" y="114.85" width="191.46" height="1.12"/><rect class="cls-23" x="44.27" y="115.6" width="191.46" height="1.12"/><rect class="cls-23" x="44.27" y="116.34" width="191.46" height="1.12"/><rect class="cls-23" x="44.27" y="117.09" width="191.46" height="1.12"/><rect class="cls-23" x="44.27" y="117.84" width="191.46" height="1.12"/><rect class="cls-24" x="44.27" y="118.59" width="191.46" height="1.12"/><rect class="cls-24" x="44.27" y="119.34" width="191.46" height="1.12"/><rect class="cls-24" x="44.27" y="120.08" width="191.46" height="1.12"/><rect class="cls-24" x="44.27" y="120.83" width="191.46" height="1.12"/><rect class="cls-24" x="44.27" y="121.58" width="191.46" height="1.12"/><rect class="cls-25" x="44.27" y="122.33" width="191.46" height="1.12"/><rect class="cls-25" x="44.27" y="123.08" width="191.46" height="1.12"/><rect class="cls-25" x="44.27" y="123.82" width="191.46" height="1.12"/><rect class="cls-25" x="44.27" y="124.57" width="191.46" height="1.12"/><rect class="cls-25" x="44.27" y="125.32" width="191.46" height="1.12"/><rect class="cls-26" x="44.27" y="126.07" width="191.46" height="1.12"/><rect class="cls-26" x="44.27" y="126.81" width="191.46" height="1.12"/><rect class="cls-26" x="44.27" y="127.56" width="191.46" height="1.12"/><rect class="cls-26" x="44.27" y="128.31" width="191.46" height="1.12"/><rect class="cls-26" x="44.27" y="129.06" width="191.46" height="1.12"/><rect class="cls-27" x="44.27" y="129.81" width="191.46" height="1.12"/><rect class="cls-27" x="44.27" y="130.55" width="191.46" height="1.12"/><rect class="cls-27" x="44.27" y="131.3" width="191.46" height="1.12"/><rect class="cls-27" x="44.27" y="132.05" width="191.46" height="1.12"/><rect class="cls-27" x="44.27" y="132.8" width="191.46" height="1.12"/><rect class="cls-28" x="44.27" y="133.55" width="191.46" height="1.12"/><rect class="cls-28" x="44.27" y="134.29" width="191.46" height="1.12"/><rect class="cls-28" x="44.27" y="135.04" width="191.46" height="1.12"/><rect class="cls-28" x="44.27" y="135.79" width="191.46" height="1.12"/><rect class="cls-28" x="44.27" y="136.54" width="191.46" height="1.12"/><rect class="cls-29" x="44.27" y="137.29" width="191.46" height="1.12"/><rect class="cls-30" x="44.27" y="138.03" width="191.46" height="1.12"/><rect class="cls-30" x="44.27" y="138.78" width="191.46" height="1.12"/><rect class="cls-30" x="44.27" y="139.53" width="191.46" height="1.12"/><rect class="cls-30" x="44.27" y="140.28" width="191.46" height="1.12"/><rect class="cls-31" x="44.27" y="141.03" width="191.46" height="1.12"/><rect class="cls-31" x="44.27" y="141.77" width="191.46" height="1.12"/><rect class="cls-31" x="44.27" y="142.52" width="191.46" height="1.12"/><rect class="cls-31" x="44.27" y="143.27" width="191.46" height="1.12"/><rect class="cls-31" x="44.27" y="144.02" width="191.46" height="1.12"/><rect class="cls-32" x="44.27" y="144.76" width="191.46" height="1.12"/><rect class="cls-32" x="44.27" y="145.51" width="191.46" height="1.12"/><rect class="cls-32" x="44.27" y="146.26" width="191.46" height="1.12"/><rect class="cls-32" x="44.27" y="147.01" width="191.46" height="1.12"/><rect class="cls-32" x="44.27" y="147.76" width="191.46" height="1.12"/><rect class="cls-33" x="44.27" y="148.5" width="191.46" height="1.12"/><rect class="cls-33" x="44.27" y="149.25" width="191.46" height="1.12"/><rect class="cls-33" x="44.27" y="150" width="191.46" height="1.12"/><rect class="cls-33" x="44.27" y="150.75" width="191.46" height="1.12"/><rect class="cls-34" x="44.27" y="151.5" width="191.46" height="1.12"/><rect class="cls-34" x="44.27" y="152.24" width="191.46" height="1.12"/><rect class="cls-34" x="44.27" y="152.99" width="191.46" height="1.12"/><rect class="cls-34" x="44.27" y="153.74" width="191.46" height="1.12"/><rect class="cls-34" x="44.27" y="154.49" width="191.46" height="1.12"/><rect class="cls-35" x="44.27" y="155.24" width="191.46" height="1.12"/><rect class="cls-35" x="44.27" y="155.98" width="191.46" height="1.12"/><rect class="cls-35" x="44.27" y="156.73" width="191.46" height="1.12"/><rect class="cls-35" x="44.27" y="157.48" width="191.46" height="1.12"/><rect class="cls-35" x="44.27" y="158.23" width="191.46" height="1.12"/><rect class="cls-36" x="44.27" y="158.97" width="191.46" height="1.12"/><rect class="cls-36" x="44.27" y="159.72" width="191.46" height="1.12"/><rect class="cls-36" x="44.27" y="160.47" width="191.46" height="1.12"/><rect class="cls-36" x="44.27" y="161.22" width="191.46" height="1.12"/><rect class="cls-37" x="44.27" y="161.97" width="191.46" height="1.12"/><rect class="cls-38" x="44.27" y="162.71" width="191.46" height="1.12"/><rect class="cls-38" x="44.27" y="163.46" width="191.46" height="1.12"/><rect class="cls-38" x="44.27" y="164.21" width="191.46" height="1.12"/><rect class="cls-38" x="44.27" y="164.96" width="191.46" height="1.12"/><rect class="cls-38" x="44.27" y="165.71" width="191.46" height="1.12"/><rect class="cls-39" x="44.27" y="166.45" width="191.46" height="1.12"/><rect class="cls-39" x="44.27" y="167.2" width="191.46" height="1.12"/><rect class="cls-39" x="44.27" y="167.95" width="191.46" height="1.12"/><rect class="cls-39" x="44.27" y="168.7" width="191.46" height="1.12"/><rect class="cls-39" x="44.27" y="169.45" width="191.46" height="1.12"/><rect class="cls-40" x="44.27" y="170.19" width="191.46" height="1.12"/><rect class="cls-40" x="44.27" y="170.94" width="191.46" height="1.12"/><rect class="cls-40" x="44.27" y="171.69" width="191.46" height="1.12"/><rect class="cls-40" x="44.27" y="172.44" width="191.46" height="1.12"/><rect class="cls-40" x="44.27" y="173.19" width="191.46" height="1.12"/><rect class="cls-41" x="44.27" y="173.93" width="191.46" height="1.12"/><rect class="cls-41" x="44.27" y="174.68" width="191.46" height="1.12"/><rect class="cls-41" x="44.27" y="175.43" width="191.46" height="1.12"/><rect class="cls-41" x="44.27" y="176.18" width="191.46" height="1.12"/><rect class="cls-41" x="44.27" y="176.92" width="191.46" height="1.12"/><rect class="cls-42" x="44.27" y="177.67" width="191.46" height="1.12"/><rect class="cls-42" x="44.27" y="178.42" width="191.46" height="1.12"/><rect class="cls-42" x="44.27" y="179.17" width="191.46" height="1.12"/><rect class="cls-42" x="44.27" y="179.92" width="191.46" height="1.12"/><rect class="cls-42" x="44.27" y="180.66" width="191.46" height="1.12"/><rect class="cls-43" x="44.27" y="181.41" width="191.46" height="1.12"/><rect class="cls-43" x="44.27" y="182.16" width="191.46" height="1.12"/><rect class="cls-43" x="44.27" y="182.91" width="191.46" height="1.12"/><rect class="cls-43" x="44.27" y="183.66" width="191.46" height="1.12"/><rect class="cls-43" x="44.27" y="184.4" width="191.46" height="1.12"/><rect class="cls-44" x="44.27" y="185.15" width="191.46" height="1.12"/><rect class="cls-45" x="44.27" y="185.9" width="191.46" height="1.12"/><rect class="cls-45" x="44.27" y="186.65" width="191.46" height="1.12"/><rect class="cls-45" x="44.27" y="187.4" width="191.46" height="1.12"/><rect class="cls-46" x="44.27" y="188.14" width="191.46" height="1.12"/><rect class="cls-46" x="44.27" y="188.89" width="191.46" height="1.12"/><rect class="cls-46" x="44.27" y="189.64" width="191.46" height="1.12"/><rect class="cls-46" x="44.27" y="190.39" width="191.46" height="1.12"/><rect class="cls-46" x="44.27" y="191.13" width="191.46" height="1.12"/><rect class="cls-47" x="44.27" y="191.88" width="191.46" height="1.12"/><rect class="cls-47" x="44.27" y="192.63" width="191.46" height="1.12"/><rect class="cls-47" x="44.27" y="193.38" width="191.46" height="1.12"/><rect class="cls-47" x="44.27" y="194.13" width="191.46" height="1.12"/><rect class="cls-47" x="44.27" y="194.87" width="191.46" height="1.12"/><rect class="cls-48" x="44.27" y="195.62" width="191.46" height="1.12"/><rect class="cls-48" x="44.27" y="196.37" width="191.46" height="1.12"/><rect class="cls-48" x="44.27" y="197.12" width="191.46" height="1.12"/><rect class="cls-48" x="44.27" y="197.87" width="191.46" height="1.12"/><rect class="cls-48" x="44.27" y="198.61" width="191.46" height="1.12"/><rect class="cls-49" x="44.27" y="199.36" width="191.46" height="1.12"/><rect class="cls-49" x="44.27" y="200.11" width="191.46" height="1.12"/><rect class="cls-49" x="44.27" y="200.86" width="191.46" height="1.12"/><rect class="cls-49" x="44.27" y="201.61" width="191.46" height="1.12"/><rect class="cls-49" x="44.27" y="202.35" width="191.46" height="1.12"/><rect class="cls-50" x="44.27" y="203.1" width="191.46" height="1.12"/><rect class="cls-50" x="44.27" y="203.85" width="191.46" height="1.12"/><rect class="cls-50" x="44.27" y="204.6" width="191.46" height="1.12"/><rect class="cls-50" x="44.27" y="205.34" width="191.46" height="1.12"/><rect class="cls-50" x="44.27" y="206.09" width="191.46" height="1.12"/><rect class="cls-51" x="44.27" y="206.84" width="191.46" height="1.12"/><rect class="cls-51" x="44.27" y="207.59" width="191.46" height="1.12"/><rect class="cls-51" x="44.27" y="208.34" width="191.46" height="1.12"/><rect class="cls-51" x="44.27" y="209.08" width="191.46" height="1.12"/><rect class="cls-52" x="44.27" y="209.83" width="191.46" height="1.12"/><rect class="cls-53" x="44.27" y="210.58" width="191.46" height="1.12"/><rect class="cls-53" x="44.27" y="211.33" width="191.46" height="1.12"/><rect class="cls-53" x="44.27" y="212.08" width="191.46" height="1.12"/><rect class="cls-53" x="44.27" y="212.82" width="191.46" height="1.12"/><rect class="cls-53" x="44.27" y="213.57" width="191.46" height="1.12"/><rect class="cls-54" x="44.27" y="214.32" width="191.46" height="1.12"/><rect class="cls-54" x="44.27" y="215.07" width="191.46" height="1.12"/><rect class="cls-54" x="44.27" y="215.82" width="191.46" height="1.12"/><rect class="cls-54" x="44.27" y="216.56" width="191.46" height="1.12"/><rect class="cls-54" x="44.27" y="217.31" width="191.46" height="1.12"/><rect class="cls-55" x="44.27" y="218.06" width="191.46" height="1.12"/><rect class="cls-55" x="44.27" y="218.81" width="191.46" height="1.12"/><rect class="cls-55" x="44.27" y="219.56" width="191.46" height="1.12"/><rect class="cls-55" x="44.27" y="220.3" width="191.46" height="1.12"/><rect class="cls-55" x="44.27" y="221.05" width="191.46" height="1.12"/><rect class="cls-56" x="44.27" y="221.8" width="191.46" height="1.12"/><rect class="cls-56" x="44.27" y="222.55" width="191.46" height="1.12"/><rect class="cls-56" x="44.27" y="223.29" width="191.46" height="1.12"/><rect class="cls-56" x="44.27" y="224.04" width="191.46" height="1.12"/><rect class="cls-56" x="44.27" y="224.79" width="191.46" height="1.12"/><rect class="cls-57" x="44.27" y="225.54" width="191.46" height="1.12"/><rect class="cls-57" x="44.27" y="226.29" width="191.46" height="1.12"/><rect class="cls-57" x="44.27" y="227.03" width="191.46" height="1.12"/><rect class="cls-57" x="44.27" y="227.78" width="191.46" height="1.12"/><rect class="cls-58" x="44.27" y="228.53" width="191.46" height="1.12"/><rect class="cls-58" x="44.27" y="229.28" width="191.46" height="1.12"/><rect class="cls-58" x="44.27" y="230.03" width="191.46" height="1.12"/><rect class="cls-58" x="44.27" y="230.77" width="191.46" height="1.12"/><rect class="cls-58" x="44.27" y="231.52" width="191.46" height="1.12"/><rect class="cls-59" x="44.27" y="232.27" width="191.46" height="1.12"/><rect class="cls-59" x="44.27" y="233.02" width="191.46" height="1.12"/><rect class="cls-60" x="44.27" y="233.77" width="191.46" height="1.12"/><rect class="cls-60" x="44.27" y="234.51" width="191.46" height="1.12"/><rect class="cls-60" x="44.27" y="235.26" width="191.46" height="1.12"/><rect class="cls-61" x="44.27" y="236.01" width="191.46" height="1.12"/><rect class="cls-61" x="44.27" y="236.76" width="191.46" height="1.12"/><rect class="cls-61" x="44.27" y="237.5" width="191.46" height="1.12"/><rect class="cls-61" x="44.27" y="238.25" width="191.46" height="1.12"/><rect class="cls-61" x="44.27" y="239" width="191.46" height="1.12"/><rect class="cls-62" x="44.27" y="239.75" width="191.46" height="1.12"/><rect class="cls-62" x="44.27" y="240.5" width="191.46" height="1.12"/><rect class="cls-62" x="44.27" y="241.24" width="191.46" height="1.12"/><rect class="cls-62" x="44.27" y="241.99" width="191.46" height="1.12"/><rect class="cls-62" x="44.27" y="242.74" width="191.46" height="1.12"/><rect class="cls-63" x="44.27" y="243.49" width="191.46" height="1.12"/><rect class="cls-63" x="44.27" y="244.24" width="191.46" height="1.12"/><rect class="cls-63" x="44.27" y="244.98" width="191.46" height="0.75"/></g><path class="cls-64" d="M110.2,214.06a89.55,89.55,0,0,1-13.77-2.48A93,93,0,0,1,86,207.93a5.35,5.35,0,0,1-2.9-4.43s-.59-5.32-.59-15.79c0-8.11.1-11.89.29-13.25s.83-2.69,2.65-2.6a62.45,62.45,0,0,1,11.5,1c6.89,1.29,11.94,2.27,13.53,2.83a4.33,4.33,0,0,1,3,3.9,133.73,133.73,0,0,1,.72,14.7c0,7.21-.43,14.28-.66,16.58-.21,2.13-1.4,3.38-3.38,3.23ZM140,197v-7.2a4.07,4.07,0,0,0-1.49-3.18L120.8,168.82a14.93,14.93,0,0,0-7.66-4.37s-6.82-1.61-16.9-3.3-12.9-1.34-12.9-1.34c-8.81-.43-9.3,9.46-9.41,10.37a161.82,161.82,0,0,0-.85,17.17,172.31,172.31,0,0,0,.85,20.15c.79,6.46,5.66,9.45,7.95,10.59.58.29,7.38,2.78,13.67,4.72a136.68,136.68,0,0,0,14.16,3.65c1.05.17,7.24,1.13,10.14-2.71L139,200.32a4.39,4.39,0,0,0,1-3.29Zm54.55-42.29h0a7.09,7.09,0,0,1,6,7.3v6.23a1.48,1.48,0,0,1-1.24,1.43l-29.24,5.05s-4.54.72-4.54,7.17v14.3c0,6.38,5.6,5.28,5.6,5.28l10.59-1.84a1.76,1.76,0,0,0,1.42-1.66l.06-3.67a.57.57,0,0,0-.71-.53l-9,1.58a1.13,1.13,0,0,1-1.41-1V182.75a2,2,0,0,1,1.61-1.87l25.89-4.58a.76.76,0,0,1,.94.71l0,25.32c0,6.73-6.92,8.46-6.92,8.46l-38.82,9a23.23,23.23,0,0,1-10.79-.91l-8.25-3.77,9.35-13.33a7,7,0,0,0,1.23-4.57v-9.26c0-2.7-1.14-4.52-3-6.37L126.24,164c-.28-.28-.56-.56-.85-.83a11.64,11.64,0,0,1,1.75-3.65A7.57,7.57,0,0,1,131.6,157l40.53-3.68a51.43,51.43,0,0,1,8.14.18l14.28,1.27ZM130.17,89.86c10.28.44,16.89,11.7,16.36,23.56s-8.08,20.83-18,20.42c-10.28-.44-18-11-17.43-22.84s9.15-21.54,19.06-21.14Zm41.91,28.77c.4-8.08,5.39-16.79,13.43-16.1,6.88.59,12,9.14,11.64,17-.41,8.08-7.22,14.73-14,14.47-6.52-.29-11.43-7.52-11.06-15.37Zm7.64,27.86c16-1.4,27.23-11.58,27.18-27.17-.05-16-12-29.59-26.64-29.74-8.59.22-16.37,5.94-21.39,12.65-3.85-17-18.67-31.87-35.74-31.83-20.34.06-37.33,19.77-37.26,41.42.07,21.87,17.17,38.24,37.26,38.18C124.51,150,179.88,146.47,179.72,146.49Z"/></svg>