<?xml version="1.0" encoding="UTF-8" standalone="no"?>
<svg
   xmlns:dc="http://purl.org/dc/elements/1.1/"
   xmlns:cc="http://creativecommons.org/ns#"
   xmlns:rdf="http://www.w3.org/1999/02/22-rdf-syntax-ns#"
   xmlns:svg="http://www.w3.org/2000/svg"
   xmlns="http://www.w3.org/2000/svg"
   xmlns:xlink="http://www.w3.org/1999/xlink"
   xmlns:sodipodi="http://sodipodi.sourceforge.net/DTD/sodipodi-0.dtd"
   xmlns:inkscape="http://www.inkscape.org/namespaces/inkscape"
   width="700"
   height="700"
   viewBox="170 100 400 350"
   version="1.1"
   id="svg37"
   sodipodi:docname="kwai-logo.svg"
   inkscape:version="0.92.3 (2405546, 2018-03-11)"
   inkscape:export-filename="C:\Users\alex\sites\kwai-logo-0.png"
   inkscape:export-xdpi="561.73712"
   inkscape:export-ydpi="561.73712">
  <metadata
     id="metadata41">
    <rdf:RDF>
      <cc:Work
         rdf:about="">
        <dc:format>image/svg+xml</dc:format>
        <dc:type
           rdf:resource="http://purl.org/dc/dcmitype/StillImage" />
        <dc:title>Group 3</dc:title>
      </cc:Work>
    </rdf:RDF>
  </metadata>
  <sodipodi:namedview
     pagecolor="#ffffff"
     bordercolor="#666666"
     borderopacity="1"
     objecttolerance="10"
     gridtolerance="10"
     guidetolerance="10"
     inkscape:pageopacity="0"
     inkscape:pageshadow="2"
     inkscape:window-width="1600"
     inkscape:window-height="838"
     id="namedview39"
     showgrid="false"
     inkscape:zoom="0.32745399"
     inkscape:cx="250.01189"
     inkscape:cy="-77.147737"
     inkscape:window-x="-8"
     inkscape:window-y="-8"
     inkscape:window-maximized="1"
     inkscape:current-layer="svg37" />
  <!-- Generator: Sketch 49.3 (51167) - http://www.bohemiancoding.com/sketch -->
  <title
     id="title2">Group 3</title>
  <desc
     id="desc4">Created with Sketch.</desc>
  <defs
     id="defs21">
    <linearGradient
       x1="0.45336613"
       y1="1"
       x2="0.42408741"
       y2="0"
       id="linearGradient-1">
      <stop
         stop-color="#FF6000"
         offset="0%"
         id="stop6" />
      <stop
         stop-color="#FF8D0A"
         offset="100%"
         id="stop8" />
    </linearGradient>
    <linearGradient
       x1="14.824319"
       y1="32.698818"
       x2="13.866954"
       y2="0.00050029904"
       id="linearGradient-2"
       gradientTransform="scale(0.88146366,1.1344767)"
       gradientUnits="userSpaceOnUse">
      <stop
         stop-color="#FF6000"
         offset="2.10666546%"
         id="stop11" />
      <stop
         stop-color="#FF8D0A"
         offset="100%"
         id="stop13" />
    </linearGradient>
    <linearGradient
       x1="105.49274"
       y1="35.46537"
       x2="105.49274"
       y2="0.00065857446"
       id="linearGradient-3"
       gradientTransform="scale(0.94309402,1.0603397)"
       gradientUnits="userSpaceOnUse">
      <stop
         stop-color="#FF6000"
         offset="0%"
         id="stop16" />
      <stop
         stop-color="#FF8D0A"
         offset="100%"
         id="stop18" />
    </linearGradient>
    <linearGradient
       gradientUnits="userSpaceOnUse"
       gradientTransform="scale(0.88146366,1.1344767)"
       x1="14.824319"
       y1="32.698818"
       x2="13.866954"
       y2="0.00050029904"
       id="linearGradient-2-6">
      <stop
         stop-color="#FF6000"
         offset="2.10666546%"
         id="stop11-9" />
      <stop
         stop-color="#FF8D0A"
         offset="100%"
         id="stop13-6" />
    </linearGradient>
    <linearGradient
       gradientUnits="userSpaceOnUse"
       gradientTransform="scale(0.94309402,1.0603397)"
       x1="105.49274"
       y1="35.46537"
       x2="105.49274"
       y2="0.00065857446"
       id="linearGradient-3-0">
      <stop
         stop-color="#FF6000"
         offset="0%"
         id="stop16-6" />
      <stop
         stop-color="#FF8D0A"
         offset="100%"
         id="stop18-2" />
    </linearGradient>
    <linearGradient
       gradientUnits="userSpaceOnUse"
       gradientTransform="scale(0.8730541,1.1454044)"
       y2="9.2659063"
       x2="90.294121"
       y1="32.705891"
       x1="90.980415"
       id="linearGradient902"
       xlink:href="#linearGradient-1"
       inkscape:collect="always" />
    <linearGradient
       gradientUnits="userSpaceOnUse"
       gradientTransform="scale(0.50126215,1.9949641)"
       y2="5.726594"
       x2="198.47147"
       y1="18.595877"
       x1="198.84827"
       id="linearGradient904"
       xlink:href="#linearGradient-1"
       inkscape:collect="always" />
    <linearGradient
       gradientUnits="userSpaceOnUse"
       gradientTransform="scale(1.2364452,0.80877019)"
       y2="14.122464"
       x2="34.932072"
       y1="45.884689"
       x1="35.86203"
       id="linearGradient906"
       xlink:href="#linearGradient-1"
       inkscape:collect="always" />
    <linearGradient
       inkscape:collect="always"
       xlink:href="#linearGradient-1"
       id="linearGradient1141"
       x1="90.980415"
       y1="32.705891"
       x2="90.294121"
       y2="9.2659063"
       gradientTransform="scale(0.8730541,1.1454044)"
       gradientUnits="userSpaceOnUse" />
    <linearGradient
       inkscape:collect="always"
       xlink:href="#linearGradient-1"
       id="linearGradient1143"
       x1="198.84827"
       y1="18.595877"
       x2="198.47147"
       y2="5.726594"
       gradientTransform="scale(0.50126215,1.9949641)"
       gradientUnits="userSpaceOnUse" />
    <linearGradient
       inkscape:collect="always"
       xlink:href="#linearGradient-1"
       id="linearGradient1145"
       x1="35.86203"
       y1="45.884689"
       x2="34.932072"
       y2="14.122464"
       gradientTransform="scale(1.2364452,0.80877019)"
       gradientUnits="userSpaceOnUse" />
  </defs>
  <g
     id="Page-1"
     style="fill:none;fill-rule:evenodd;stroke:none;stroke-width:1"
     transform="matrix(4.3534773,0,0,4.3534773,-21.072575,738.58307)"
     inkscape:export-filename="C:\Users\alex\sites\kwai-logo-4.png"
     inkscape:export-xdpi="205.11346"
     inkscape:export-ydpi="205.11346">
    <g
       id="Artboard-5"
       transform="translate(-3233,-1586)">
      <g
         id="Group-3"
         transform="translate(3234,1587)">
        <g
           id="Group">
          <path
             d="m 16.058153,40.347569 c -0.532166,-0.0246 -1.870072,-0.272894 -3.225811,-0.650633 -1.345198,-0.368275 -2.264179,-0.860013 -2.264179,-0.860013 -0.505635,-0.268361 -0.6901689,-0.691787 -0.761022,-1.129255 0.021612,0.0085 -0.1713124,-1.373979 -0.1713124,-4.048343 0,-2.030114 0.1039735,-3.117906 0.1515017,-3.461401 0.050954,-0.361805 0.2230577,-0.65794 0.6822627,-0.63558 0.459249,0.02293 1.083572,0.01131 2.551851,0.283018 1.750856,0.331567 2.60878,0.611591 3.025201,0.75781 0.376623,0.137636 0.773146,0.438392 0.849753,1.00183 0,0 0.202807,1.48054 0.199777,3.725316 0.003,1.816861 -0.125322,3.616951 -0.1837,4.198964 -0.05443,0.539011 -0.322155,0.842892 -0.854322,0.818287 z m 7.927019,-6.243383 c -3.95e-4,-0.32109 -0.128528,-0.620262 -0.375306,-0.857108 l -4.535912,-4.449674 c -0.520482,-0.545877 -1.139798,-0.886159 -1.893309,-1.04501 0,0 -1.711279,-0.422458 -4.258738,-0.849669 -2.547502,-0.427212 -3.2127654,-0.378971 -3.2127654,-0.378971 -2.2585559,0 -2.3399512,2.409217 -2.3632761,2.652489 -0.055786,0.581485 -0.1884875,2.122546 -0.1884875,4.267759 0,2.531712 0.1076632,4.285982 0.237641,5.358325 0.1975802,1.636574 1.4540466,2.403891 2.0323796,2.694656 0.1465819,0.07337 1.7158914,0.737959 3.3071634,1.228816 1.072459,0.331435 2.790986,0.815955 3.596066,0.943247 0.264524,0.04247 1.819645,0.309691 2.554311,-0.664586 l 4.820071,-6.251878 c 0.199821,-0.289576 0.280162,-0.407405 0.280162,-0.850638 z M 34.51996,24.984717 c -0.683668,-0.06941 -1.371378,-0.08429 -2.05733,-0.04476 l -10.840734,1.015299 c 0,0 -0.718634,0.10951 -1.128026,0.655959 -0.316665,0.422678 -0.383257,0.775372 -0.383257,0.775372 0.143419,0.142609 0.201402,0.201105 0.280425,0.27351 l 4.280877,4.368247 c 0.478708,0.470214 0.756498,0.927665 0.756498,1.612365 v 2.460495 c 0,0.437511 -0.03773,0.805082 -0.280777,1.13502 l -2.295849,3.120283 2.309862,0.896414 c 0.876636,0.289004 1.690677,0.280729 2.605705,0.141377 l 9.943716,-2.283774 c 0,0 1.793113,-0.477301 1.793377,-2.181306 V 30.86731 c 0,-0.116948 -0.06778,-0.217611 -0.189761,-0.192962 l -6.349496,1.248667 c -0.237026,0.04815 -0.385453,0.251195 -0.385453,0.478842 v 2.936519 c 0,0.175401 0.20395,0.316822 0.385453,0.276108 l 1.989552,-0.464625 c 0.103446,-0.02861 0.183348,0.04745 0.187433,0.188517 v 0.947252 c -0.0095,0.194943 -0.162571,0.329454 -0.378161,0.378927 l -2.251967,0.483331 c 0.0019,-0.007 -1.511326,0.385485 -1.511326,-1.232162 v -3.745343 c 0,-1.634285 1.184515,-1.799826 1.184515,-1.799826 l 6.99117,-1.348407 c 0.182074,-0.03438 0.328041,-0.195911 0.328041,-0.370828 V 27.125709 C 39.497847,25.441202 37.872279,25.33693 37.872279,25.33693 Z M 21.526356,9.0941673 c 2.600171,0.1106543 4.571141,2.5810087 4.43598,5.5852227 -0.150008,2.995632 -2.403556,5.385042 -4.908626,5.281827 -2.599599,-0.110699 -4.48386,-2.605261 -4.34927,-5.608948 0.150008,-2.995587 2.316846,-5.3613174 4.821916,-5.2581017 z m 10.474521,7.0268977 c 0.106565,-2.048248 1.567377,-3.667084 3.291877,-3.601457 1.639504,0.07368 2.948682,1.812766 2.860873,3.79442 -0.105731,2.054146 -1.589383,3.611404 -3.31015,3.556561 -1.643808,-0.08508 -2.929574,-1.761401 -2.8426,-3.749524 z m 8.717032,0.2677 c -0.0046,-4.042973 -3.01132,-7.2939374 -6.712238,-7.2939374 -2.160249,0 -4.120282,1.1439114 -5.388652,2.8417984 -0.97446,-4.315604 -4.575402,-7.4954395 -8.886587,-7.4834673 -5.145213,0.014393 -9.28188,4.4620427 -9.264705,9.9463393 0.01722,5.539975 4.176069,10.041147 9.264705,10.025698 0.293076,-0.0034 14.315344,-0.945755 14.275239,-0.946503 4.041391,-0.349085 6.732884,-3.14097 6.712238,-7.089928 z"
             id="Fill-3-Copy-4"
             style="fill:#ff7304;fill-opacity:1"
             inkscape:connector-curvature="0" />
        </g>
        <g
           id="Group-3-Copy-2"
           transform="translate(58.755992,5.390625)">
          <g
             id="Group-2">
            <g
               id="kwai">
              <path
                 d="m 72.584232,11.401015 0.07898,-0.01545 c 1.854324,-0.367111 4.649402,-0.772355 7.797503,-0.772355 6.565993,0 10.167339,2.919971 10.156607,8.853379 l -0.01955,16.68779 c -5.2e-4,0.50991 -0.415806,0.944543 -0.929548,0.944543 h -3.906856 c -0.137075,0 -0.462333,-0.05992 -0.6985,-0.285528 -0.178096,-0.163525 -0.303609,-0.481899 -0.303609,-0.62304 v -0.372121 c -0.576262,0.600778 -1.776073,1.55358 -5.094617,1.637502 -3.583588,0.09058 -5.289141,-0.912225 -6.173429,-1.548822 -1.04543,-0.752934 -1.917763,-1.752672 -2.507866,-2.894312 -0.346442,-0.670714 -0.660643,-1.43532 -0.792466,-2.845689 -0.141664,-1.517871 0.13047,-3.017313 0.537606,-4.012231 1.182152,-2.891903 4.206789,-4.491994 9.506785,-4.815112 1.581629,-0.0964 4.252168,-0.108116 4.252168,-0.108116 l 0.007,-1.764864 c 0.01141,-3.01306 -1.244094,-3.46173 -3.976283,-3.46173 -3.949456,0 -7.421406,0.730476 -8.063697,0.866627 -0.273548,0.02652 -0.391475,-0.0648 -0.4988,-0.149089 -0.162537,-0.127647 -0.186862,-0.318108 -0.192515,-0.448354 0.0067,-3.137902 -3.51e-4,-3.926739 0,-3.926896 0.0043,-0.411671 0.329029,-0.767796 0.739348,-0.921653 0.01548,-0.0052 0.0312,-0.0097 0.08172,-0.02448 z m 3.502783,17.877065 c 0.136057,-1.704534 1.697858,-2.220256 2.047493,-2.340079 0.791016,-0.271091 1.841432,-0.470605 3.165758,-0.577629 1.608749,-0.129899 3.169679,-0.07891 3.169679,-0.07891 l 0.0097,5.323842 c -1.308237,0.643826 -2.353228,0.914399 -4.013213,1.003802 -0.139241,0.0075 -0.293486,0.01248 -0.457978,0.01248 -1.481749,4.7e-5 -3.590533,-0.414003 -3.921447,-2.995388 -0.0086,-0.184953 -0.0041,-0.242007 0,-0.34811 z"
                 id="Fill-5-Copy-2"
                 inkscape:connector-curvature="0"
                 style="fill:url(#linearGradient1141)" />
              <path
                 d="m 97.710629,11.42435 c -0.562313,0.02556 -0.937384,0.459389 -0.960133,0.97131 0,15.665924 0,23.600844 0,23.80476 0,0.155782 0.08007,0.37653 0.287825,0.603508 0.207759,0.226978 0.53782,0.294178 0.719488,0.294178 0.770386,0 4.485371,-0.01461 4.503861,-0.01461 0.60207,0 0.93561,-0.445838 0.93971,-0.992812 l -0.008,-23.656355 c -1.8e-4,-0.557669 -0.45231,-1.009655 -1.00998,-1.009655 l -4.399663,-3.2e-4 z"
                 id="Fill-7-Copy-2"
                 inkscape:connector-curvature="0"
                 style="fill:url(#linearGradient1143)" />
              <path
                 d="m 19.561255,0.0125529 c -0.358868,0 -0.653665,0.14803733 -0.835133,0.3826247 L 7.5343214,14.596736 C 7.2274346,14.967903 6.5556737,14.635305 6.5536226,14.117962 V 1.0747822 c 0,-0.36079426 -0.1244809,-0.58783147 -0.2679811,-0.74654961 C 6.1237124,0.18265511 5.9272507,5.675776e-4 5.5522149,5.675776e-4 c -0.4220718,0 -0.504812,9.856924e-4 -2.7440169,0 -0.00205,0 -0.5893462,0 -1.7695267,0 C 0.41346163,0.00133139 -0.02500478,0.46029301 0.001115,1.0378343 L 0.00248658,4.2309245 V 36.087546 c -0.001682303,0.330434 0.14872721,0.552056 0.31211412,0.733113 0.20237908,0.188682 0.49070563,0.275343 0.6915433,0.275343 0.3946826,0 1.0460913,-0.0011 4.466069,0 0.6786552,0 1.0675668,-0.443153 1.0814096,-0.980928 V 20.984528 c 0,-1.185632 0.886177,-0.970752 1.2292724,-0.561776 L 21.26503,36.508791 c 0.283166,0.33331 0.721187,0.580554 1.166809,0.580554 0.0023,0 1.896009,0.0069 6.04033,0.0067 0.130626,-0.0067 0.23284,-0.06144 0.307918,-0.182075 0.07384,-0.138187 0.04877,-0.316847 -0.05773,-0.41923 L 13.348502,18.427279 C 13.166004,18.211406 13.06908,17.925404 13.223069,17.745907 L 26.019935,0.58064422 c 0.04143,-0.0487623 0.156572,-0.2220308 0.0094,-0.44450271 C 25.923959,0.02077211 25.827382,5.675776e-4 25.754968,5.675776e-4 Z"
                 id="Fill-9-Copy-2"
                 inkscape:connector-curvature="0"
                 style="fill:url(#linearGradient-2)" />
              <path
                 d="m 97.749166,0.00194629 c -0.5993,-4.7848e-4 -0.969796,0.40351937 -0.98622,0.93946753 -0.01008,2.22945168 -0.01513,3.90165038 -0.01513,5.01659628 0,0.1070879 4.7e-5,0.2079233 1.4e-4,0.302506 h -2.2e-5 c 5.48e-4,0.557418 0.452578,1.009004 1.009996,1.009004 h 4.43231 c 0.60448,5.263e-4 1.02368,-0.426902 1.02266,-0.986248 L 103.2014,1.0084819 C 103.2004,0.45143429 102.74819,5.418567e-4 102.19114,6.9835336e-4 Z"
                 id="Fill-11-Copy-2"
                 inkscape:connector-curvature="0"
                 style="fill:url(#linearGradient-3)" />
              <path
                 d="m 55.407337,27.558107 c -0.151902,0.493118 -0.865912,0.507391 -1.045345,0 L 48.663663,12.007746 c -0.122765,-0.287737 -0.515795,-0.58591 -0.891105,-0.58591 h -2.918453 c -0.497045,-0.0011 -0.868458,0.269632 -1.00746,0.660791 l -5.66563,15.440109 c -0.158743,0.508531 -0.952524,0.50881 -1.076974,0 L 32.807493,12.610069 c -0.02127,-0.07675 -0.07361,-0.646051 -0.423963,-0.933715 -0.31938,-0.239406 -0.415522,-0.235507 -0.842147,-0.254518 -0.481703,0 -2.012119,2e-6 -3.930486,0 -0.657986,0 -1.186272,0.504791 -1.053635,1.162035 0.01017,0.05036 6.467394,23.133753 6.599837,23.624396 0.09013,0.287113 0.163572,0.475371 0.333614,0.630147 0.170043,0.154776 0.435435,0.253882 0.674167,0.271537 0.507582,1.89e-4 1.799417,3.78e-4 3.68796,0 h 2.550219 c 0.46609,0 0.813697,-0.210738 0.968583,-0.576173 l 0.994317,-2.26515 3.544847,-9.525006 c 0.186376,-0.424307 0.807942,-0.481903 0.970249,0 L 51.13324,36.35205 c 0.07981,0.211827 0.156698,0.368077 0.32018,0.502454 0.172013,0.141389 0.404443,0.237926 0.644899,0.237926 l 6.573319,0.01752 c 0.526651,0 0.948061,-0.283182 1.04964,-0.727918 l 0.286552,-1.095171 c 6.41e-4,-0.002 0.157702,-0.602895 0.470522,-1.802728 l 5.282862,-20.6462 c 0.171355,-0.621579 -0.125118,-1.232268 -0.780646,-1.386402 -0.08954,-0.0235 -0.198456,-0.0297 -0.290898,-0.0297 h -4.050859 c -0.503761,-0.0011 -0.871987,0.276157 -1.001279,0.673558 -0.12941,0.397402 -4.078293,14.969595 -4.230195,15.462713 z"
                 id="Fill-13-Copy-2"
                 inkscape:connector-curvature="0"
                 style="fill:url(#linearGradient1145)" />
            </g>
          </g>
        </g>
      </g>
    </g>
  </g>
  <g
     transform="matrix(4.3184155,0,0,4.3184155,-17.471277,968.28779)"
     style="fill:none;fill-rule:evenodd;stroke:none;stroke-width:1"
     id="Page-1-1"
     inkscape:export-filename="C:\Users\alex\sites\kwai-logo-5.png"
     inkscape:export-xdpi="197.6413"
     inkscape:export-ydpi="197.6413">
    <g
       id="Artboard-5-9"
       transform="translate(-3233,-1586)">
      <g
         id="Group-3-0"
         transform="translate(3234,1587)">
        <g
           id="Group-30">
          <path
             inkscape:connector-curvature="0"
             d="M 37.427146,48 H 10.475829 C 4.6901877,48 0,43.300312 0,37.502953 V 10.497047 C 0,4.6996875 4.6901877,0 10.475829,0 h 26.951317 c 5.785641,0 10.475828,4.6996875 10.475828,10.497047 V 37.502953 C 47.902974,43.300312 43.212787,48 37.427146,48"
             id="Fill-1-Copy-6-6"
             style="fill:#ff7705;fill-opacity:1;stroke:none" />
          <path
             inkscape:connector-curvature="0"
             d="m 16.058153,40.347569 c -0.532166,-0.0246 -1.870072,-0.272894 -3.225811,-0.650633 -1.345198,-0.368275 -2.264179,-0.860013 -2.264179,-0.860013 -0.505635,-0.268361 -0.6901689,-0.691787 -0.761022,-1.129255 0.021612,0.0085 -0.1713124,-1.373979 -0.1713124,-4.048343 0,-2.030114 0.1039735,-3.117906 0.1515017,-3.461401 0.050954,-0.361805 0.2230577,-0.65794 0.6822627,-0.63558 0.459249,0.02293 1.083572,0.01131 2.551851,0.283018 1.750856,0.331567 2.60878,0.611591 3.025201,0.75781 0.376623,0.137636 0.773146,0.438392 0.849753,1.00183 0,0 0.202807,1.48054 0.199777,3.725316 0.003,1.816861 -0.125322,3.616951 -0.1837,4.198964 -0.05443,0.539011 -0.322155,0.842892 -0.854322,0.818287 z m 7.927019,-6.243383 c -3.95e-4,-0.32109 -0.128528,-0.620262 -0.375306,-0.857108 l -4.535912,-4.449674 c -0.520482,-0.545877 -1.139798,-0.886159 -1.893309,-1.04501 0,0 -1.711279,-0.422458 -4.258738,-0.849669 -2.547502,-0.427212 -3.2127654,-0.378971 -3.2127654,-0.378971 -2.2585559,0 -2.3399512,2.409217 -2.3632761,2.652489 -0.055786,0.581485 -0.1884875,2.122546 -0.1884875,4.267759 0,2.531712 0.1076632,4.285982 0.237641,5.358325 0.1975802,1.636574 1.4540466,2.403891 2.0323796,2.694656 0.1465819,0.07337 1.7158914,0.737959 3.3071634,1.228816 1.072459,0.331435 2.790986,0.815955 3.596066,0.943247 0.264524,0.04247 1.819645,0.309691 2.554311,-0.664586 l 4.820071,-6.251878 c 0.199821,-0.289576 0.280162,-0.407405 0.280162,-0.850638 z M 34.51996,24.984717 c -0.683668,-0.06941 -1.371378,-0.08429 -2.05733,-0.04476 l -10.840734,1.015299 c 0,0 -0.718634,0.10951 -1.128026,0.655959 -0.316665,0.422678 -0.383257,0.775372 -0.383257,0.775372 0.143419,0.142609 0.201402,0.201105 0.280425,0.27351 l 4.280877,4.368247 c 0.478708,0.470214 0.756498,0.927665 0.756498,1.612365 v 2.460495 c 0,0.437511 -0.03773,0.805082 -0.280777,1.13502 l -2.295849,3.120283 2.309862,0.896414 c 0.876636,0.289004 1.690677,0.280729 2.605705,0.141377 l 9.943716,-2.283774 c 0,0 1.793113,-0.477301 1.793377,-2.181306 V 30.86731 c 0,-0.116948 -0.06778,-0.217611 -0.189761,-0.192962 l -6.349496,1.248667 c -0.237026,0.04815 -0.385453,0.251195 -0.385453,0.478842 v 2.936519 c 0,0.175401 0.20395,0.316822 0.385453,0.276108 l 1.989552,-0.464625 c 0.103446,-0.02861 0.183348,0.04745 0.187433,0.188517 v 0.947252 c -0.0095,0.194943 -0.162571,0.329454 -0.378161,0.378927 l -2.251967,0.483331 c 0.0019,-0.007 -1.511326,0.385485 -1.511326,-1.232162 v -3.745343 c 0,-1.634285 1.184515,-1.799826 1.184515,-1.799826 l 6.99117,-1.348407 c 0.182074,-0.03438 0.328041,-0.195911 0.328041,-0.370828 V 27.125709 C 39.497847,25.441202 37.872279,25.33693 37.872279,25.33693 Z M 21.526356,9.0941673 c 2.600171,0.1106543 4.571141,2.5810087 4.43598,5.5852227 -0.150008,2.995632 -2.403556,5.385042 -4.908626,5.281827 -2.599599,-0.110699 -4.48386,-2.605261 -4.34927,-5.608948 0.150008,-2.995587 2.316846,-5.3613174 4.821916,-5.2581017 z m 10.474521,7.0268977 c 0.106565,-2.048248 1.567377,-3.667084 3.291877,-3.601457 1.639504,0.07368 2.948682,1.812766 2.860873,3.79442 -0.105731,2.054146 -1.589383,3.611404 -3.31015,3.556561 -1.643808,-0.08508 -2.929574,-1.761401 -2.8426,-3.749524 z m 8.717032,0.2677 c -0.0046,-4.042973 -3.01132,-7.2939374 -6.712238,-7.2939374 -2.160249,0 -4.120282,1.1439114 -5.388652,2.8417984 -0.97446,-4.315604 -4.575402,-7.4954395 -8.886587,-7.4834673 -5.145213,0.014393 -9.28188,4.4620427 -9.264705,9.9463393 0.01722,5.539975 4.176069,10.041147 9.264705,10.025698 0.293076,-0.0034 14.315344,-0.945755 14.275239,-0.946503 4.041391,-0.349085 6.732884,-3.14097 6.712238,-7.089928 z"
             id="Fill-3-Copy-4-7"
             style="fill:#ffffff" />
        </g>
        <g
           id="Group-3-Copy-2-5"
           transform="translate(58.755992,5.390625)">
          <g
             id="Group-2-9">
            <g
               id="kwai-1">
              <path
                 style="fill:url(#linearGradient902)"
                 inkscape:connector-curvature="0"
                 d="m 72.584232,11.401015 0.07898,-0.01545 c 1.854324,-0.367111 4.649402,-0.772355 7.797503,-0.772355 6.565993,0 10.167339,2.919971 10.156607,8.853379 l -0.01955,16.68779 c -5.2e-4,0.50991 -0.415806,0.944543 -0.929548,0.944543 h -3.906856 c -0.137075,0 -0.462333,-0.05992 -0.6985,-0.285528 -0.178096,-0.163525 -0.303609,-0.481899 -0.303609,-0.62304 v -0.372121 c -0.576262,0.600778 -1.776073,1.55358 -5.094617,1.637502 -3.583588,0.09058 -5.289141,-0.912225 -6.173429,-1.548822 -1.04543,-0.752934 -1.917763,-1.752672 -2.507866,-2.894312 -0.346442,-0.670714 -0.660643,-1.43532 -0.792466,-2.845689 -0.141664,-1.517871 0.13047,-3.017313 0.537606,-4.012231 1.182152,-2.891903 4.206789,-4.491994 9.506785,-4.815112 1.581629,-0.0964 4.252168,-0.108116 4.252168,-0.108116 l 0.007,-1.764864 c 0.01141,-3.01306 -1.244094,-3.46173 -3.976283,-3.46173 -3.949456,0 -7.421406,0.730476 -8.063697,0.866627 -0.273548,0.02652 -0.391475,-0.0648 -0.4988,-0.149089 -0.162537,-0.127647 -0.186862,-0.318108 -0.192515,-0.448354 0.0067,-3.137902 -3.51e-4,-3.926739 0,-3.926896 0.0043,-0.411671 0.329029,-0.767796 0.739348,-0.921653 0.01548,-0.0052 0.0312,-0.0097 0.08172,-0.02448 z m 3.502783,17.877065 c 0.136057,-1.704534 1.697858,-2.220256 2.047493,-2.340079 0.791016,-0.271091 1.841432,-0.470605 3.165758,-0.577629 1.608749,-0.129899 3.169679,-0.07891 3.169679,-0.07891 l 0.0097,5.323842 c -1.308237,0.643826 -2.353228,0.914399 -4.013213,1.003802 -0.139241,0.0075 -0.293486,0.01248 -0.457978,0.01248 -1.481749,4.7e-5 -3.590533,-0.414003 -3.921447,-2.995388 -0.0086,-0.184953 -0.0041,-0.242007 0,-0.34811 z"
                 id="Fill-5-Copy-2-0" />
              <path
                 style="fill:url(#linearGradient904)"
                 inkscape:connector-curvature="0"
                 d="m 97.710629,11.42435 c -0.562313,0.02556 -0.937384,0.459389 -0.960133,0.97131 0,15.665924 0,23.600844 0,23.80476 0,0.155782 0.08007,0.37653 0.287825,0.603508 0.207759,0.226978 0.53782,0.294178 0.719488,0.294178 0.770386,0 4.485371,-0.01461 4.503861,-0.01461 0.60207,0 0.93561,-0.445838 0.93971,-0.992812 l -0.008,-23.656355 c -1.8e-4,-0.557669 -0.45231,-1.009655 -1.00998,-1.009655 l -4.399663,-3.2e-4 z"
                 id="Fill-7-Copy-2-9" />
              <path
                 style="fill:url(#linearGradient-2-6)"
                 inkscape:connector-curvature="0"
                 d="m 19.561255,0.0125529 c -0.358868,0 -0.653665,0.14803733 -0.835133,0.3826247 L 7.5343214,14.596736 C 7.2274346,14.967903 6.5556737,14.635305 6.5536226,14.117962 V 1.0747822 c 0,-0.36079426 -0.1244809,-0.58783147 -0.2679811,-0.74654961 C 6.1237124,0.18265511 5.9272507,5.675776e-4 5.5522149,5.675776e-4 c -0.4220718,0 -0.504812,9.856924e-4 -2.7440169,0 -0.00205,0 -0.5893462,0 -1.7695267,0 C 0.41346163,0.00133139 -0.02500478,0.46029301 0.001115,1.0378343 L 0.00248658,4.2309245 V 36.087546 c -0.001682303,0.330434 0.14872721,0.552056 0.31211412,0.733113 0.20237908,0.188682 0.49070563,0.275343 0.6915433,0.275343 0.3946826,0 1.0460913,-0.0011 4.466069,0 0.6786552,0 1.0675668,-0.443153 1.0814096,-0.980928 V 20.984528 c 0,-1.185632 0.886177,-0.970752 1.2292724,-0.561776 L 21.26503,36.508791 c 0.283166,0.33331 0.721187,0.580554 1.166809,0.580554 0.0023,0 1.896009,0.0069 6.04033,0.0067 0.130626,-0.0067 0.23284,-0.06144 0.307918,-0.182075 0.07384,-0.138187 0.04877,-0.316847 -0.05773,-0.41923 L 13.348502,18.427279 C 13.166004,18.211406 13.06908,17.925404 13.223069,17.745907 L 26.019935,0.58064422 c 0.04143,-0.0487623 0.156572,-0.2220308 0.0094,-0.44450271 C 25.923959,0.02077211 25.827382,5.675776e-4 25.754968,5.675776e-4 Z"
                 id="Fill-9-Copy-2-4" />
              <path
                 style="fill:url(#linearGradient-3-0)"
                 inkscape:connector-curvature="0"
                 d="m 97.749166,0.00194629 c -0.5993,-4.7848e-4 -0.969796,0.40351937 -0.98622,0.93946753 -0.01008,2.22945168 -0.01513,3.90165038 -0.01513,5.01659628 0,0.1070879 4.7e-5,0.2079233 1.4e-4,0.302506 h -2.2e-5 c 5.48e-4,0.557418 0.452578,1.009004 1.009996,1.009004 h 4.43231 c 0.60448,5.263e-4 1.02368,-0.426902 1.02266,-0.986248 L 103.2014,1.0084819 C 103.2004,0.45143429 102.74819,5.418567e-4 102.19114,6.9835336e-4 Z"
                 id="Fill-11-Copy-2-2" />
              <path
                 style="fill:url(#linearGradient906)"
                 inkscape:connector-curvature="0"
                 d="m 55.407337,27.558107 c -0.151902,0.493118 -0.865912,0.507391 -1.045345,0 L 48.663663,12.007746 c -0.122765,-0.287737 -0.515795,-0.58591 -0.891105,-0.58591 h -2.918453 c -0.497045,-0.0011 -0.868458,0.269632 -1.00746,0.660791 l -5.66563,15.440109 c -0.158743,0.508531 -0.952524,0.50881 -1.076974,0 L 32.807493,12.610069 c -0.02127,-0.07675 -0.07361,-0.646051 -0.423963,-0.933715 -0.31938,-0.239406 -0.415522,-0.235507 -0.842147,-0.254518 -0.481703,0 -2.012119,2e-6 -3.930486,0 -0.657986,0 -1.186272,0.504791 -1.053635,1.162035 0.01017,0.05036 6.467394,23.133753 6.599837,23.624396 0.09013,0.287113 0.163572,0.475371 0.333614,0.630147 0.170043,0.154776 0.435435,0.253882 0.674167,0.271537 0.507582,1.89e-4 1.799417,3.78e-4 3.68796,0 h 2.550219 c 0.46609,0 0.813697,-0.210738 0.968583,-0.576173 l 0.994317,-2.26515 3.544847,-9.525006 c 0.186376,-0.424307 0.807942,-0.481903 0.970249,0 L 51.13324,36.35205 c 0.07981,0.211827 0.156698,0.368077 0.32018,0.502454 0.172013,0.141389 0.404443,0.237926 0.644899,0.237926 l 6.573319,0.01752 c 0.526651,0 0.948061,-0.283182 1.04964,-0.727918 l 0.286552,-1.095171 c 6.41e-4,-0.002 0.157702,-0.602895 0.470522,-1.802728 l 5.282862,-20.6462 c 0.171355,-0.621579 -0.125118,-1.232268 -0.780646,-1.386402 -0.08954,-0.0235 -0.198456,-0.0297 -0.290898,-0.0297 h -4.050859 c -0.503761,-0.0011 -0.871987,0.276157 -1.001279,0.673558 -0.12941,0.397402 -4.078293,14.969595 -4.230195,15.462713 z"
                 id="Fill-13-Copy-2-4" />
            </g>
          </g>
        </g>
      </g>
    </g>
  </g>
  <g
     transform="matrix(9.6822084,0,0,9.6822084,108.02119,31.444011)"
     style="fill:#ff7705;fill-opacity:1;fill-rule:evenodd;stroke:none;stroke-width:1"
     id="Page-1-3"
     inkscape:export-filename="C:\Users\alex\sites\kwai-logo-6.png"
     inkscape:export-xdpi="424.05591"
     inkscape:export-ydpi="424.05591">
    <g
       id="Artboard-5-8"
       transform="translate(-3233,-1586)"
       style="fill:#ff7705;fill-opacity:1">
      <g
         id="Group-3-7"
         transform="translate(3234,1587)"
         style="fill:#ff7705;fill-opacity:1">
        <g
           id="Group-24"
           style="fill:#ff7705;fill-opacity:1">
          <path
             inkscape:connector-curvature="0"
             d="m 16.058153,40.347569 c -0.532166,-0.0246 -1.870072,-0.272894 -3.225811,-0.650633 -1.345198,-0.368275 -2.264179,-0.860013 -2.264179,-0.860013 -0.505635,-0.268361 -0.6901689,-0.691787 -0.761022,-1.129255 0.021612,0.0085 -0.1713124,-1.373979 -0.1713124,-4.048343 0,-2.030114 0.1039735,-3.117906 0.1515017,-3.461401 0.050954,-0.361805 0.2230577,-0.65794 0.6822627,-0.63558 0.459249,0.02293 1.083572,0.01131 2.551851,0.283018 1.750856,0.331567 2.60878,0.611591 3.025201,0.75781 0.376623,0.137636 0.773146,0.438392 0.849753,1.00183 0,0 0.202807,1.48054 0.199777,3.725316 0.003,1.816861 -0.125322,3.616951 -0.1837,4.198964 -0.05443,0.539011 -0.322155,0.842892 -0.854322,0.818287 z m 7.927019,-6.243383 c -3.95e-4,-0.32109 -0.128528,-0.620262 -0.375306,-0.857108 l -4.535912,-4.449674 c -0.520482,-0.545877 -1.139798,-0.886159 -1.893309,-1.04501 0,0 -1.711279,-0.422458 -4.258738,-0.849669 -2.547502,-0.427212 -3.2127654,-0.378971 -3.2127654,-0.378971 -2.2585559,0 -2.3399512,2.409217 -2.3632761,2.652489 -0.055786,0.581485 -0.1884875,2.122546 -0.1884875,4.267759 0,2.531712 0.1076632,4.285982 0.237641,5.358325 0.1975802,1.636574 1.4540466,2.403891 2.0323796,2.694656 0.1465819,0.07337 1.7158914,0.737959 3.3071634,1.228816 1.072459,0.331435 2.790986,0.815955 3.596066,0.943247 0.264524,0.04247 1.819645,0.309691 2.554311,-0.664586 l 4.820071,-6.251878 c 0.199821,-0.289576 0.280162,-0.407405 0.280162,-0.850638 z M 34.51996,24.984717 c -0.683668,-0.06941 -1.371378,-0.08429 -2.05733,-0.04476 l -10.840734,1.015299 c 0,0 -0.718634,0.10951 -1.128026,0.655959 -0.316665,0.422678 -0.383257,0.775372 -0.383257,0.775372 0.143419,0.142609 0.201402,0.201105 0.280425,0.27351 l 4.280877,4.368247 c 0.478708,0.470214 0.756498,0.927665 0.756498,1.612365 v 2.460495 c 0,0.437511 -0.03773,0.805082 -0.280777,1.13502 l -2.295849,3.120283 2.309862,0.896414 c 0.876636,0.289004 1.690677,0.280729 2.605705,0.141377 l 9.943716,-2.283774 c 0,0 1.793113,-0.477301 1.793377,-2.181306 V 30.86731 c 0,-0.116948 -0.06778,-0.217611 -0.189761,-0.192962 l -6.349496,1.248667 c -0.237026,0.04815 -0.385453,0.251195 -0.385453,0.478842 v 2.936519 c 0,0.175401 0.20395,0.316822 0.385453,0.276108 l 1.989552,-0.464625 c 0.103446,-0.02861 0.183348,0.04745 0.187433,0.188517 v 0.947252 c -0.0095,0.194943 -0.162571,0.329454 -0.378161,0.378927 l -2.251967,0.483331 c 0.0019,-0.007 -1.511326,0.385485 -1.511326,-1.232162 v -3.745343 c 0,-1.634285 1.184515,-1.799826 1.184515,-1.799826 l 6.99117,-1.348407 c 0.182074,-0.03438 0.328041,-0.195911 0.328041,-0.370828 V 27.125709 C 39.497847,25.441202 37.872279,25.33693 37.872279,25.33693 Z M 21.526356,9.0941673 c 2.600171,0.1106543 4.571141,2.5810087 4.43598,5.5852227 -0.150008,2.995632 -2.403556,5.385042 -4.908626,5.281827 -2.599599,-0.110699 -4.48386,-2.605261 -4.34927,-5.608948 0.150008,-2.995587 2.316846,-5.3613174 4.821916,-5.2581017 z m 10.474521,7.0268977 c 0.106565,-2.048248 1.567377,-3.667084 3.291877,-3.601457 1.639504,0.07368 2.948682,1.812766 2.860873,3.79442 -0.105731,2.054146 -1.589383,3.611404 -3.31015,3.556561 -1.643808,-0.08508 -2.929574,-1.761401 -2.8426,-3.749524 z m 8.717032,0.2677 c -0.0046,-4.042973 -3.01132,-7.2939374 -6.712238,-7.2939374 -2.160249,0 -4.120282,1.1439114 -5.388652,2.8417984 -0.97446,-4.315604 -4.575402,-7.4954395 -8.886587,-7.4834673 -5.145213,0.014393 -9.28188,4.4620427 -9.264705,9.9463393 0.01722,5.539975 4.176069,10.041147 9.264705,10.025698 0.293076,-0.0034 14.315344,-0.945755 14.275239,-0.946503 4.041391,-0.349085 6.732884,-3.14097 6.712238,-7.089928 z"
             id="Fill-3-Copy-4-1"
             style="fill:#ff7705;fill-opacity:1" />
        </g>
        <g
           id="Group-3-Copy-2-2"
           transform="matrix(0.32218972,0,0,0.32218972,7.5727051,47.279515)"
           style="fill:#ff7705;fill-opacity:1">
          <g
             id="Group-2-2"
             style="fill:#ff7705;fill-opacity:1">
            <g
               id="kwai-0"
               style="fill:#ff7705;fill-opacity:1">
              <path
                 style="fill:#ff7705;fill-opacity:1"
                 inkscape:connector-curvature="0"
                 d="m 72.584232,11.401015 0.07898,-0.01545 c 1.854324,-0.367111 4.649402,-0.772355 7.797503,-0.772355 6.565993,0 10.167339,2.919971 10.156607,8.853379 l -0.01955,16.68779 c -5.2e-4,0.50991 -0.415806,0.944543 -0.929548,0.944543 h -3.906856 c -0.137075,0 -0.462333,-0.05992 -0.6985,-0.285528 -0.178096,-0.163525 -0.303609,-0.481899 -0.303609,-0.62304 v -0.372121 c -0.576262,0.600778 -1.776073,1.55358 -5.094617,1.637502 -3.583588,0.09058 -5.289141,-0.912225 -6.173429,-1.548822 -1.04543,-0.752934 -1.917763,-1.752672 -2.507866,-2.894312 -0.346442,-0.670714 -0.660643,-1.43532 -0.792466,-2.845689 -0.141664,-1.517871 0.13047,-3.017313 0.537606,-4.012231 1.182152,-2.891903 4.206789,-4.491994 9.506785,-4.815112 1.581629,-0.0964 4.252168,-0.108116 4.252168,-0.108116 l 0.007,-1.764864 c 0.01141,-3.01306 -1.244094,-3.46173 -3.976283,-3.46173 -3.949456,0 -7.421406,0.730476 -8.063697,0.866627 -0.273548,0.02652 -0.391475,-0.0648 -0.4988,-0.149089 -0.162537,-0.127647 -0.186862,-0.318108 -0.192515,-0.448354 0.0067,-3.137902 -3.51e-4,-3.926739 0,-3.926896 0.0043,-0.411671 0.329029,-0.767796 0.739348,-0.921653 0.01548,-0.0052 0.0312,-0.0097 0.08172,-0.02448 z m 3.502783,17.877065 c 0.136057,-1.704534 1.697858,-2.220256 2.047493,-2.340079 0.791016,-0.271091 1.841432,-0.470605 3.165758,-0.577629 1.608749,-0.129899 3.169679,-0.07891 3.169679,-0.07891 l 0.0097,5.323842 c -1.308237,0.643826 -2.353228,0.914399 -4.013213,1.003802 -0.139241,0.0075 -0.293486,0.01248 -0.457978,0.01248 -1.481749,4.7e-5 -3.590533,-0.414003 -3.921447,-2.995388 -0.0086,-0.184953 -0.0041,-0.242007 0,-0.34811 z"
                 id="Fill-5-Copy-2-4" />
              <path
                 style="fill:#ff7705;fill-opacity:1"
                 inkscape:connector-curvature="0"
                 d="m 97.710629,11.42435 c -0.562313,0.02556 -0.937384,0.459389 -0.960133,0.97131 0,15.665924 0,23.600844 0,23.80476 0,0.155782 0.08007,0.37653 0.287825,0.603508 0.207759,0.226978 0.53782,0.294178 0.719488,0.294178 0.770386,0 4.485371,-0.01461 4.503861,-0.01461 0.60207,0 0.93561,-0.445838 0.93971,-0.992812 l -0.008,-23.656355 c -1.8e-4,-0.557669 -0.45231,-1.009655 -1.00998,-1.009655 l -4.399663,-3.2e-4 z"
                 id="Fill-7-Copy-2-2" />
              <path
                 style="fill:#ff7705;fill-opacity:1"
                 inkscape:connector-curvature="0"
                 d="m 19.561255,0.0125529 c -0.358868,0 -0.653665,0.14803733 -0.835133,0.3826247 L 7.5343214,14.596736 C 7.2274346,14.967903 6.5556737,14.635305 6.5536226,14.117962 V 1.0747822 c 0,-0.36079426 -0.1244809,-0.58783147 -0.2679811,-0.74654961 C 6.1237124,0.18265511 5.9272507,5.675776e-4 5.5522149,5.675776e-4 c -0.4220718,0 -0.504812,9.856924e-4 -2.7440169,0 -0.00205,0 -0.5893462,0 -1.7695267,0 C 0.41346163,0.00133139 -0.02500478,0.46029301 0.001115,1.0378343 L 0.00248658,4.2309245 V 36.087546 c -0.001682303,0.330434 0.14872721,0.552056 0.31211412,0.733113 0.20237908,0.188682 0.49070563,0.275343 0.6915433,0.275343 0.3946826,0 1.0460913,-0.0011 4.466069,0 0.6786552,0 1.0675668,-0.443153 1.0814096,-0.980928 V 20.984528 c 0,-1.185632 0.886177,-0.970752 1.2292724,-0.561776 L 21.26503,36.508791 c 0.283166,0.33331 0.721187,0.580554 1.166809,0.580554 0.0023,0 1.896009,0.0069 6.04033,0.0067 0.130626,-0.0067 0.23284,-0.06144 0.307918,-0.182075 0.07384,-0.138187 0.04877,-0.316847 -0.05773,-0.41923 L 13.348502,18.427279 C 13.166004,18.211406 13.06908,17.925404 13.223069,17.745907 L 26.019935,0.58064422 c 0.04143,-0.0487623 0.156572,-0.2220308 0.0094,-0.44450271 C 25.923959,0.02077211 25.827382,5.675776e-4 25.754968,5.675776e-4 Z"
                 id="Fill-9-Copy-2-3" />
              <path
                 style="fill:#ff7705;fill-opacity:1"
                 inkscape:connector-curvature="0"
                 d="m 97.749166,0.00194629 c -0.5993,-4.7848e-4 -0.969796,0.40351937 -0.98622,0.93946753 -0.01008,2.22945168 -0.01513,3.90165038 -0.01513,5.01659628 0,0.1070879 4.7e-5,0.2079233 1.4e-4,0.302506 h -2.2e-5 c 5.48e-4,0.557418 0.452578,1.009004 1.009996,1.009004 h 4.43231 c 0.60448,5.263e-4 1.02368,-0.426902 1.02266,-0.986248 L 103.2014,1.0084819 C 103.2004,0.45143429 102.74819,5.418567e-4 102.19114,6.9835336e-4 Z"
                 id="Fill-11-Copy-2-23" />
              <path
                 style="fill:#ff7705;fill-opacity:1"
                 inkscape:connector-curvature="0"
                 d="m 55.407337,27.558107 c -0.151902,0.493118 -0.865912,0.507391 -1.045345,0 L 48.663663,12.007746 c -0.122765,-0.287737 -0.515795,-0.58591 -0.891105,-0.58591 h -2.918453 c -0.497045,-0.0011 -0.868458,0.269632 -1.00746,0.660791 l -5.66563,15.440109 c -0.158743,0.508531 -0.952524,0.50881 -1.076974,0 L 32.807493,12.610069 c -0.02127,-0.07675 -0.07361,-0.646051 -0.423963,-0.933715 -0.31938,-0.239406 -0.415522,-0.235507 -0.842147,-0.254518 -0.481703,0 -2.012119,2e-6 -3.930486,0 -0.657986,0 -1.186272,0.504791 -1.053635,1.162035 0.01017,0.05036 6.467394,23.133753 6.599837,23.624396 0.09013,0.287113 0.163572,0.475371 0.333614,0.630147 0.170043,0.154776 0.435435,0.253882 0.674167,0.271537 0.507582,1.89e-4 1.799417,3.78e-4 3.68796,0 h 2.550219 c 0.46609,0 0.813697,-0.210738 0.968583,-0.576173 l 0.994317,-2.26515 3.544847,-9.525006 c 0.186376,-0.424307 0.807942,-0.481903 0.970249,0 L 51.13324,36.35205 c 0.07981,0.211827 0.156698,0.368077 0.32018,0.502454 0.172013,0.141389 0.404443,0.237926 0.644899,0.237926 l 6.573319,0.01752 c 0.526651,0 0.948061,-0.283182 1.04964,-0.727918 l 0.286552,-1.095171 c 6.41e-4,-0.002 0.157702,-0.602895 0.470522,-1.802728 l 5.282862,-20.6462 c 0.171355,-0.621579 -0.125118,-1.232268 -0.780646,-1.386402 -0.08954,-0.0235 -0.198456,-0.0297 -0.290898,-0.0297 h -4.050859 c -0.503761,-0.0011 -0.871987,0.276157 -1.001279,0.673558 -0.12941,0.397402 -4.078293,14.969595 -4.230195,15.462713 z"
                 id="Fill-13-Copy-2-7" />
            </g>
          </g>
        </g>
      </g>
    </g>
  </g>
</svg>
