<?xml version="1.0" encoding="UTF-8"?>
<svg version="1.1" xmlns="http://www.w3.org/2000/svg" viewBox="0 -5 280 120">
<!-- <rect x="0" y="-30" width="230" height="130" fill="white"/> -->
<path d="M0 0 C1.73189575 -0.00945648 1.73189575 -0.00945648 3.4987793 -0.019104 C4.75086182 -0.01505554 6.00294434 -0.01100708 7.29296875 -0.00683594 C8.57276611 -0.00874939 9.85256348 -0.01066284 11.17114258 -0.01263428 C13.88139668 -0.01558475 16.59151902 -0.01129049 19.30175781 -0.00195312 C22.77896106 0.00944154 26.25585557 0.00288163 29.73304749 -0.00909805 C33.04471279 -0.01805519 36.35629466 -0.01178729 39.66796875 -0.00683594 C41.54609253 -0.01290863 41.54609253 -0.01290863 43.4621582 -0.019104 C44.61675537 -0.01279968 45.77135254 -0.00649536 46.9609375 0 C47.98082764 0.00159119 49.00071777 0.00318237 50.05151367 0.00482178 C52.48046875 0.25878906 52.48046875 0.25878906 54.48046875 2.25878906 C54.73443604 4.64978027 54.73443604 4.64978027 54.73925781 7.68652344 C54.74556213 8.82109985 54.75186646 9.95567627 54.75836182 11.12463379 C54.75431335 12.35484253 54.75026489 13.58505127 54.74609375 14.85253906 C54.74896393 16.73894104 54.74896393 16.73894104 54.75189209 18.66345215 C54.75325524 21.32671781 54.75054881 23.98961836 54.74121094 26.65283203 C54.72981627 30.069503 54.73637623 33.48585979 54.74835587 36.90251923 C54.75731329 40.15670386 54.75104503 43.41085034 54.74609375 46.66503906 C54.75014221 47.8952478 54.75419067 49.12545654 54.75836182 50.39294434 C54.7520575 51.52752075 54.74575317 52.66209717 54.73925781 53.83105469 C54.73766663 54.83317993 54.73607544 55.83530518 54.73443604 56.86779785 C54.48046875 59.25878906 54.48046875 59.25878906 52.48046875 61.25878906 C50.05151367 61.51275635 50.05151367 61.51275635 46.9609375 61.51757812 C45.22904175 61.52703461 45.22904175 61.52703461 43.4621582 61.53668213 C42.21007568 61.53263367 40.95799316 61.52858521 39.66796875 61.52441406 C38.38817139 61.52632751 37.10837402 61.52824097 35.78979492 61.5302124 C33.07954082 61.53316288 30.36941848 61.52886862 27.65917969 61.51953125 C24.18197644 61.50813659 20.70508193 61.51469649 17.22789001 61.52667618 C13.91622471 61.53563331 10.60464284 61.52936542 7.29296875 61.52441406 C5.41484497 61.53048676 5.41484497 61.53048676 3.4987793 61.53668213 C2.34418213 61.53037781 1.18958496 61.52407349 0 61.51757812 C-1.01989014 61.51598694 -2.03978027 61.51439575 -3.09057617 61.51275635 C-5.51953125 61.25878906 -5.51953125 61.25878906 -7.51953125 59.25878906 C-7.77349854 56.86779785 -7.77349854 56.86779785 -7.77832031 53.83105469 C-7.78462463 52.69647827 -7.79092896 51.56190186 -7.79742432 50.39294434 C-7.79337585 49.1627356 -7.78932739 47.93252686 -7.78515625 46.66503906 C-7.7870697 45.40743774 -7.78898315 44.14983643 -7.79095459 42.85412598 C-7.79231774 40.19086031 -7.78961131 37.52795976 -7.78027344 34.86474609 C-7.76887877 31.44807512 -7.77543873 28.03171834 -7.78741837 24.6150589 C-7.79637579 21.36087427 -7.79010753 18.10672779 -7.78515625 14.85253906 C-7.78920471 13.62233032 -7.79325317 12.39212158 -7.79742432 11.12463379 C-7.79112 9.99005737 -7.78481567 8.85548096 -7.77832031 7.68652344 C-7.77672913 6.68439819 -7.77513794 5.68227295 -7.77349854 4.64978027 C-7.24533145 -0.32268249 -4.24283593 0.00661948 0 0 Z " fill="#B3121A" transform="translate(175.51953125,18.7412109375)"/>
<path d="M0 0 C-0.60110283 4.00735217 -2.66602028 6.55469371 -5.0625 9.75 C-6.16271484 11.22726563 -6.16271484 11.22726563 -7.28515625 12.734375 C-7.85105469 13.48203125 -8.41695312 14.2296875 -9 15 C-9.90363281 14.57847656 -10.80726562 14.15695313 -11.73828125 13.72265625 C-12.91777344 13.17480469 -14.09726563 12.62695312 -15.3125 12.0625 C-16.48425781 11.51722656 -17.65601563 10.97195312 -18.86328125 10.41015625 C-22.5732641 8.74228102 -25.40123184 7.84653262 -29.4375 7.8125 C-30.58025391 7.79123047 -30.58025391 7.79123047 -31.74609375 7.76953125 C-34.26990955 8.02759907 -35.85579589 8.6604641 -38 10 C-39.12308546 12.40661169 -39.17276999 13.50746236 -38.29296875 16.015625 C-36.61045706 18.59784838 -35.3536973 18.94003598 -32.4375 19.875 C-31.46039063 20.205 -30.48328125 20.535 -29.4765625 20.875 C-28.32929687 21.24625 -27.18203125 21.6175 -26 22 C-4.56723278 28.9368309 -4.56723278 28.9368309 0.9375 36.75 C3.35720288 44.15144411 3.85135095 51.65279803 1 59 C-2.9027727 66.53357517 -8.94220047 69.95892715 -16.80859375 72.609375 C-31.76015759 75.2745379 -45.33411745 71.87136021 -57.953125 63.68359375 C-60 62 -60 62 -61 59 C-59.19921875 56.3359375 -59.19921875 56.3359375 -56.6875 53.375 C-55.86636719 52.39273438 -55.04523438 51.41046875 -54.19921875 50.3984375 C-52 48 -52 48 -50 47 C-47.79296875 48.14453125 -47.79296875 48.14453125 -45.1875 49.8125 C-38.29380801 54.20318733 -32.22513901 56.14080124 -24 56 C-21.34284026 55.28654575 -19.42575366 54.34764092 -17 53 C-16.49830585 50.16926564 -16.49830585 50.16926564 -17 47 C-22.66180088 42.19547679 -29.66112914 40.78930551 -36.68164062 38.8203125 C-44.36394926 36.53624001 -52.11552171 33.48471143 -56.5625 26.4375 C-59.21580748 20.01305643 -59.11579491 12.74845386 -57.15234375 6.15234375 C-53.93974724 -1.06783079 -49.13110658 -5.22952575 -41.9375 -8.3125 C-26.66008867 -11.88806435 -12.78675389 -8.93973624 0 0 Z " fill="#000000" transform="translate(138,27)"/>
<path d="M0 0 C2.34765625 2.1953125 2.34765625 2.1953125 4 4 C2.62815653 8.06498881 0.77931541 10.67396561 -2.125 13.8125 C-2.84945312 14.60269531 -3.57390625 15.39289062 -4.3203125 16.20703125 C-4.87460938 16.79871094 -5.42890625 17.39039062 -6 18 C-9.10403031 17.38880819 -11.16437002 16.362825 -13.75 14.5625 C-20.7995704 10.09647382 -26.27182189 9.45514918 -34.44921875 11.2421875 C-40.65598098 13.08615668 -43.89264752 16.45115629 -47 22 C-50.28456965 29.06182475 -49.98597288 37.06083684 -47.4375 44.3125 C-44.90146341 49.96912062 -41.19434425 53.47662461 -35.6328125 56.12890625 C-28.80033991 58.38950178 -21.86533896 57.81659463 -15.4375 54.6875 C-12.51744704 53.09082079 -10.25145585 51.45286404 -8 49 C-4.31930113 50.53643852 -2.01224796 52.78150945 0.75 55.625 C1.54921875 56.44226563 2.3484375 57.25953125 3.171875 58.1015625 C3.77515625 58.72804688 4.3784375 59.35453125 5 60 C3.4876844 63.86288613 1.25220528 65.64290501 -2.0625 68.0625 C-2.96097656 68.73410156 -3.85945313 69.40570313 -4.78515625 70.09765625 C-12.0405213 74.39092815 -18.95919021 75.56049793 -27.3125 75.5 C-28.23385742 75.49427979 -29.15521484 75.48855957 -30.10449219 75.48266602 C-41.54260941 75.18372895 -50.82246531 71.06373202 -59 63 C-61.3961334 60.16966793 -63.25881711 57.2706718 -65 54 C-65.41378906 53.22398438 -65.82757813 52.44796875 -66.25390625 51.6484375 C-70.47657413 42.14375649 -70.59112426 30.44194115 -68.1171875 20.42578125 C-63.94044117 9.62432798 -57.08173222 1.67290131 -47 -4 C-31.34143075 -10.84747723 -14.38617141 -8.93524465 0 0 Z " fill="#000000" transform="translate(69,25)"/>
<path d="M0 0 C5.94 0 11.88 0 18 0 C18 20.79 18 41.58 18 63 C31.2 63 44.4 63 58 63 C58 68.61 58 74.22 58 80 C38.86 80 19.72 80 0 80 C0 53.6 0 27.2 0 0 Z " fill="#000000" transform="translate(147,19)"/>
<path d="M0 0 C3.63 0 7.26 0 11 0 C11 5.61 11 11.22 11 17 C7.37 17 3.74 17 0 17 C0 11.39 0 5.78 0 0 Z " fill="#B3131B" transform="translate(219,82)"/>
<path d="M0 0 C3.63 0 7.26 0 11 0 C11 5.61 11 11.22 11 17 C7.37 17 3.74 17 0 17 C0 11.39 0 5.78 0 0 Z " fill="#B3131A" transform="translate(207,82)"/>
<path d="M0 0 C5.28 0 10.56 0 16 0 C16 3.63 16 7.26 16 11 C10.72 11 5.44 11 0 11 C0 7.37 0 3.74 0 0 Z " fill="#B3131A" transform="translate(233,69)"/>
<path d="M0 0 C5.28 0 10.56 0 16 0 C16 3.63 16 7.26 16 11 C10.72 11 5.44 11 0 11 C0 7.37 0 3.74 0 0 Z " fill="#B2121B" transform="translate(233,56)"/>
<path d="M0 0 C5.28 0 10.56 0 16 0 C16 3.63 16 7.26 16 11 C10.72 11 5.44 11 0 11 C0 7.37 0 3.74 0 0 Z " fill="#B3131A" transform="translate(233,44)"/>
<path d="M0 0 C5.28 0 10.56 0 16 0 C16 3.63 16 7.26 16 11 C10.72 11 5.44 11 0 11 C0 7.37 0 3.74 0 0 Z " fill="#B3131B" transform="translate(233,31)"/>
<path d="M0 0 C5.28 0 10.56 0 16 0 C16 3.63 16 7.26 16 11 C10.72 11 5.44 11 0 11 C0 7.37 0 3.74 0 0 Z " fill="#B2121B" transform="translate(233,19)"/>
<path d="M0 0 C3.63 0 7.26 0 11 0 C11 5.28 11 10.56 11 16 C7.37 16 3.74 16 0 16 C0 10.72 0 5.44 0 0 Z " fill="#B3131B" transform="translate(219,0)"/>
<path d="M0 0 C3.63 0 7.26 0 11 0 C11 5.28 11 10.56 11 16 C7.37 16 3.74 16 0 16 C0 10.72 0 5.44 0 0 Z " fill="#B2121B" transform="translate(207,0)"/>
<path d="M0 0 C3.63 0 7.26 0 11 0 C11 5.28 11 10.56 11 16 C7.37 16 3.74 16 0 16 C0 10.72 0 5.44 0 0 Z " fill="#B2121A" transform="translate(194,0)"/>
<path d="M0 0 C3.63 0 7.26 0 11 0 C11 5.28 11 10.56 11 16 C7.37 16 3.74 16 0 16 C0 10.72 0 5.44 0 0 Z " fill="#B2121B" transform="translate(181,0)"/>
<path d="M0 0 C3.63 0 7.26 0 11 0 C11 5.28 11 10.56 11 16 C7.37 16 3.74 16 0 16 C0 10.72 0 5.44 0 0 Z " fill="#B3131A" transform="translate(168,0)"/>
</svg>
